<?xml version="1.0" encoding="UTF-8"?>
<!-- Created with Inkscape (http://www.inkscape.org/) -->
<svg width="41.955mm" height="41.955mm" version="1.1" viewBox="0 0 41.955 41.955" xmlns="http://www.w3.org/2000/svg" xmlns:cc="http://creativecommons.org/ns#" xmlns:dc="http://purl.org/dc/elements/1.1/" xmlns:rdf="http://www.w3.org/1999/02/22-rdf-syntax-ns#">
 <metadata>
  <rdf:RDF>
   <cc:Work rdf:about="">
    <dc:format>image/svg+xml</dc:format>
    <dc:type rdf:resource="http://purl.org/dc/dcmitype/StillImage"/>
    <dc:title/>
   </cc:Work>
  </rdf:RDF>
 </metadata>
 <g transform="translate(-41.577 -114.63)">
  <g>
   <path d="m54.217 114.63h16.675c7.0026 0 12.64 5.6375 12.64 12.64v16.675c0 7.0026-5.6375 12.64-12.64 12.64h-16.675c-7.0026 0-12.64-5.6375-12.64-12.64v-16.675c0-7.0026 5.6375-12.64 12.64-12.64z" fill="#000080"/>
   <g fill="#fff" stroke-width=".6128" aria-label="TS">
    <path d="m58.358 135.79h-4.9312v14.746h-2.8486v-14.746h-4.9192v-2.4177h12.699z" style="font-feature-settings:normal;font-variant-caps:normal;font-variant-ligatures:normal;font-variant-numeric:normal"/>
    <path d="m60.106 149.85v-2.9324q0.39497 0.35907 0.93357 0.64632 0.55057 0.28725 1.161 0.49072 0.61041 0.1915 1.2208 0.29922t1.1251 0.10772q1.7953 0 2.6691-0.59844 0.8857-0.59844 0.8857-1.7355 0-0.61041-0.29922-1.0533-0.28725-0.45481-0.81388-0.82585-0.52663-0.37103-1.2448-0.70616-0.70616-0.3471-1.52-0.71813-0.87373-0.46679-1.6278-0.94554-0.75404-0.47876-1.3166-1.0533-0.55057-0.58648-0.87373-1.3166-0.31119-0.7301-0.31119-1.7116 0-1.2088 0.5386-2.0946 0.55057-0.89766 1.4363-1.4722 0.89766-0.58647 2.0347-0.86176 1.137-0.28725 2.322-0.28725 2.693 0 3.9258 0.61041v2.8127q-1.4602-1.0533-3.7582-1.0533-0.63435 0-1.2687 0.11968-0.62238 0.11969-1.1251 0.39498-0.49072 0.27528-0.80191 0.70616-0.31119 0.43088-0.31119 1.0413 0 0.57451 0.23938 0.99342 0.23938 0.41891 0.69419 0.766 0.46679 0.3471 1.1251 0.68223 0.67026 0.32316 1.544 0.70616 0.89766 0.46679 1.6876 0.98145 0.80191 0.51466 1.4004 1.137 0.61041 0.62238 0.95751 1.3884 0.35907 0.75404 0.35907 1.7235 0 1.3046-0.52663 2.2023-0.52663 0.89766-1.4243 1.4602-0.8857 0.56254-2.0467 0.81388-1.161 0.25135-2.4536 0.25135-0.43088 0-1.0652-0.0718-0.62238-0.0598-1.2807-0.19151-0.65829-0.11968-1.2448-0.29922-0.58648-0.17953-0.94554-0.40694z" style="font-feature-settings:normal;font-variant-caps:normal;font-variant-ligatures:normal;font-variant-numeric:normal"/>
   </g>
   <g fill="#ccc" aria-label="P">
    <path d="m74.898 147.74v4.0227h-2.6302v-11.677h4.1204q4.4136 0 4.4136 3.7214 0 1.7589-1.2703 2.8501-1.2622 1.083-3.3794 1.083zm0-5.6351v3.64h1.0342q2.1009 0 2.1009-1.8404 0-1.7996-2.1009-1.7996z" fill="#ccc" stroke-width=".41693" style="font-feature-settings:normal;font-variant-caps:normal;font-variant-ligatures:normal;font-variant-numeric:normal"/>
   </g>
  </g>
 </g>
</svg>
